# xmcd
# Track frame offsets:
# 150
# 14148
# 33447
# 46502
# 63146
# 76468
# 91393
# 108911
# 126313
# 140864
# 158379
# 175780
# 198582
# 219956
# 235617
#
# Disc length: 3371 seconds
# Revision: 0
# Processed by: cddbd v1.5.1PL0 Copyright (c) Steve Scherf et al.
# Submitted via: VisiTrax 2.9.10.228 - For more info visit www.synapsa.com
#
DISCID=c00d290f
DTITLE=McGraw, Tim - CB90036
DYEAR=1900
DGENRE=Karaoke
TTITLE0=Indian Outlaw
TTITLE1=Don't Take The Girl
TTITLE2=Down On The Farm
TTITLE3=Not A Moment Too Soon
TTITLE4=Refried Dreams
TTITLE5=I Like It, I Love It
TTITLE6=Can't Really Be Gone
TTITLE7=All I Want Is A Life
TTITLE8=She Never Lets It Go To Her Heart
TTITLE9=It's Your Love
TTITLE10=Just To See You Smile
TTITLE11=Everywhere
TTITLE12=One Of These Days
TTITLE13=Where The Green Grass Grows
TTITLE14=For A Little While
EXTD=
EXTT0=
EXTT1=
EXTT2=
EXTT3=
EXTT4=
EXTT5=
EXTT6=
EXTT7=
EXTT8=
EXTT9=
EXTT10=
EXTT11=
EXTT12=
EXTT13=
EXTT14=
PLAYORDER=
